<svg viewBox="0 0 28.3333 31.4395" fill="none" xmlns="http://www.w3.org/2000/svg">
<path d="M6.375 26.9167H4.25C2.68519 26.9167 1.41667 25.6481 1.41667 24.0833V4.25C1.41667 2.68519 2.68519 1.41667 4.25 1.41667H24.0833C25.6481 1.41667 26.9167 2.68519 26.9167 4.25V24.0833C26.9167 25.6481 25.6481 26.9167 24.0833 26.9167H21.9583M14.1667 25.5C16.5139 25.5 18.4167 23.5972 18.4167 21.25C18.4167 18.9028 16.5139 17 14.1667 17C11.8195 17 9.91667 18.9028 9.91667 21.25C9.91667 23.5972 11.8195 25.5 14.1667 25.5ZM14.1667 25.5L14.197 25.4997L9.67395 30.0228L5.66701 26.0159L9.94451 21.7384M14.1667 25.5L18.6898 30.0228L22.6968 26.0159L18.4193 21.7384M9.91667 7.08333H18.4167M7.08333 12.0417H21.25" stroke="white" stroke-width="2.83333" stroke-linecap="round" stroke-linejoin="round"/>
</svg>