<svg preserveAspectRatio="none" width="100%" height="100%" overflow="visible" style="display: block;" viewBox="0 0 87.5 87.5" fill="none" xmlns="http://www.w3.org/2000/svg">
<path id="Icon" d="M58 8.6C58 5.93975 58 4.60963 57.4823 3.59355C57.0269 2.69978 56.3002 1.97312 55.4065 1.51772C54.3904 1 53.0602 1 50.4 1H37.1C34.4397 1 33.1096 1 32.0935 1.51772C31.1998 1.97312 30.4731 2.69978 30.0177 3.59355C29.5 4.60963 29.5 5.93975 29.5 8.6V21.9C29.5 24.5602 29.5 25.8904 28.9823 26.9065C28.5269 27.8002 27.8002 28.5269 26.9065 28.9823C25.8904 29.5 24.5602 29.5 21.9 29.5H8.6C5.93975 29.5 4.60963 29.5 3.59355 30.0177C2.69978 30.4731 1.97312 31.1998 1.51772 32.0935C1 33.1096 1 34.4397 1 37.1V50.4C1 53.0602 1 54.3904 1.51772 55.4065C1.97312 56.3002 2.69978 57.0269 3.59355 57.4823C4.60963 58 5.93975 58 8.6 58H21.9C24.5602 58 25.8904 58 26.9065 58.5177C27.8002 58.9731 28.5269 59.6998 28.9823 60.5935C29.5 61.6096 29.5 62.9397 29.5 65.6V78.9C29.5 81.5602 29.5 82.8904 30.0177 83.9064C30.4731 84.8002 31.1998 85.5269 32.0935 85.9823C33.1096 86.5 34.4397 86.5 37.1 86.5H50.4C53.0602 86.5 54.3904 86.5 55.4065 85.9823C56.3002 85.5269 57.0269 84.8002 57.4823 83.9064C58 82.8904 58 81.5602 58 78.9V65.6C58 62.9397 58 61.6096 58.5177 60.5935C58.9731 59.6998 59.6998 58.9731 60.5935 58.5177C61.6096 58 62.9397 58 65.6 58H78.9C81.5602 58 82.8904 58 83.9064 57.4823C84.8002 57.0269 85.5269 56.3002 85.9823 55.4065C86.5 54.3904 86.5 53.0602 86.5 50.4V37.1C86.5 34.4397 86.5 33.1096 85.9823 32.0935C85.5269 31.1998 84.8002 30.4731 83.9064 30.0177C82.8904 29.5 81.5602 29.5 78.9 29.5L65.6 29.5C62.9397 29.5 61.6096 29.5 60.5935 28.9823C59.6998 28.5269 58.9731 27.8002 58.5177 26.9065C58 25.8904 58 24.5602 58 21.9V8.6Z" stroke="var(--stroke-0, #3560CC)" stroke-width="2" stroke-linecap="round" stroke-linejoin="round"/>
</svg>
