<svg preserveAspectRatio="none" width="100%" height="100%" overflow="visible" style="display: block;" viewBox="0 0 27.5 27.5" fill="none" xmlns="http://www.w3.org/2000/svg">
<path id="Icon" d="M18 3.26667C18 2.47326 18 2.07656 17.8456 1.77352C17.7098 1.50695 17.4931 1.29023 17.2265 1.15441C16.9234 1 16.5267 1 15.7333 1H11.7667C10.9733 1 10.5766 1 10.2735 1.15441C10.007 1.29023 9.79023 1.50695 9.65441 1.77352C9.5 2.07656 9.5 2.47326 9.5 3.26667V7.23333C9.5 8.02674 9.5 8.42345 9.3456 8.72649C9.20977 8.99305 8.99305 9.20977 8.72649 9.34559C8.42345 9.5 8.02674 9.5 7.23334 9.5H3.26667C2.47326 9.5 2.07656 9.5 1.77352 9.65441C1.50695 9.79023 1.29023 10.007 1.15441 10.2735C1 10.5766 1 10.9733 1 11.7667V15.7333C1 16.5267 1 16.9234 1.15441 17.2265C1.29023 17.4931 1.50695 17.7098 1.77352 17.8456C2.07656 18 2.47326 18 3.26667 18H7.23334C8.02674 18 8.42345 18 8.72649 18.1544C8.99305 18.2902 9.20977 18.507 9.3456 18.7735C9.5 19.0766 9.5 19.4733 9.5 20.2667V24.2333C9.5 25.0267 9.5 25.4234 9.65441 25.7265C9.79023 25.9931 10.007 26.2098 10.2735 26.3456C10.5766 26.5 10.9733 26.5 11.7667 26.5H15.7333C16.5267 26.5 16.9234 26.5 17.2265 26.3456C17.4931 26.2098 17.7098 25.9931 17.8456 25.7265C18 25.4234 18 25.0267 18 24.2333V20.2667C18 19.4733 18 19.0766 18.1544 18.7735C18.2902 18.507 18.507 18.2902 18.7735 18.1544C19.0766 18 19.4733 18 20.2667 18H24.2333C25.0267 18 25.4234 18 25.7265 17.8456C25.9931 17.7098 26.2098 17.4931 26.3456 17.2265C26.5 16.9234 26.5 16.5267 26.5 15.7333V11.7667C26.5 10.9733 26.5 10.5766 26.3456 10.2735C26.2098 10.007 25.9931 9.79023 25.7265 9.65441C25.4234 9.5 25.0267 9.5 24.2333 9.5L20.2667 9.5C19.4733 9.5 19.0766 9.5 18.7735 9.34559C18.507 9.20977 18.2902 8.99305 18.1544 8.72649C18 8.42345 18 8.02674 18 7.23334V3.26667Z" stroke="var(--stroke-0, #3560CC)" stroke-width="2" stroke-linecap="round" stroke-linejoin="round"/>
</svg>
