<svg preserveAspectRatio="none" width="100%" height="100%" overflow="visible" style="display: block;" viewBox="0 0 32.011 29.2702" fill="none" xmlns="http://www.w3.org/2000/svg">
<g id="Group">
<path id="Vector" fill-rule="evenodd" clip-rule="evenodd" d="M9.64262 17.6802C10.0011 17.7267 10.3641 17.7267 10.7226 17.6802C11.0722 17.6289 11.416 17.5441 11.7493 17.4269C12.4961 17.1423 13.2111 16.7803 13.8826 16.3469C13.9832 16.2953 14.0601 16.207 14.0974 16.1002C14.1346 15.9935 14.1293 15.8765 14.0826 15.7735C14.0287 15.6752 13.9403 15.6003 13.8344 15.5634C13.7285 15.5264 13.6127 15.5301 13.5093 15.5735C12.8012 15.8221 12.0745 16.0138 11.336 16.1469C10.8954 16.2372 10.4503 16.304 10.0026 16.3469H9.33595C10.1141 15.3275 10.5816 14.1053 10.6826 12.8269C10.9493 10.1602 9.62929 7.49355 6.53595 7.22688C5.54183 7.221 4.56052 7.45121 3.67273 7.89858C2.78494 8.34595 2.01604 8.9977 1.42929 9.80022C0.773899 10.5693 0.382625 11.5284 0.31302 12.5365C0.243416 13.5446 0.499156 14.5483 1.04262 15.4002C1.38714 15.913 1.8429 16.3414 2.37595 16.6535L2.88262 16.9202C1.85985 17.9659 1.08521 19.2281 0.615955 20.6135C0.265635 21.6877 0.0637673 22.8047 0.0159548 23.9335C-0.0435878 25.5801 0.0636248 27.2285 0.335955 28.8536C0.339158 28.9138 0.354732 28.9728 0.381708 29.0268C0.408684 29.0808 0.446485 29.1287 0.492758 29.1675C0.539032 29.2062 0.592789 29.2351 0.650684 29.2522C0.70858 29.2693 0.769375 29.2743 0.829288 29.2669C0.937729 29.2535 1.0369 29.199 1.10636 29.1147C1.17582 29.0303 1.21027 28.9225 1.20262 28.8135C1.12032 27.2211 1.16937 25.6246 1.34929 24.0402C1.4656 23.0253 1.66629 22.0218 1.94929 21.0402C2.32233 19.6713 2.96113 18.3891 3.82929 17.2669C4.18929 17.3602 4.54929 17.4535 4.90929 17.5202C5.00653 17.5397 5.10752 17.5197 5.19004 17.4647C5.27256 17.4097 5.32984 17.3241 5.34929 17.2269C5.36874 17.1296 5.34876 17.0286 5.29375 16.9461C5.23874 16.8636 5.1532 16.8063 5.05596 16.7869C2.38929 16.1735 1.90929 14.9335 1.89595 14.8935C1.51693 14.2115 1.368 13.4253 1.47128 12.6519C1.57457 11.8784 1.92456 11.1589 2.46929 10.6002C2.93498 9.98015 3.53921 9.47757 4.23374 9.13262C4.92826 8.78767 5.69383 8.60992 6.46929 8.61355C8.74929 8.74688 9.65596 10.7335 9.53596 12.7069C9.54944 13.7389 9.22043 14.7463 8.6004 15.5714C7.98037 16.3965 7.10431 16.9927 6.10929 17.2669C5.99968 17.2865 5.90159 17.3469 5.83478 17.436C5.76798 17.5251 5.73743 17.6362 5.74929 17.7469C5.76889 17.8555 5.82986 17.9524 5.91937 18.017C6.00888 18.0817 6.11997 18.1091 6.22929 18.0935C6.95064 17.99 7.63406 17.7056 8.21596 17.2669C8.66763 17.4766 9.14876 17.616 9.64262 17.6802Z" fill="var(--fill-0, #322D53)"/>
<path id="Vector_2" fill-rule="evenodd" clip-rule="evenodd" d="M14.11 18.1996C13.5657 18.7147 12.9613 19.1623 12.31 19.5329C11.6654 19.8895 10.9864 20.1799 10.2833 20.3996C9.74228 20.5328 9.20827 20.693 8.68329 20.8796C8.31145 21.0165 7.9967 21.2749 7.78996 21.6129C7.48966 22.3475 7.36194 23.1412 7.41663 23.9329C7.41663 25.5996 7.96329 27.6529 8.04329 28.7063C8.04496 28.7617 8.05779 28.8163 8.081 28.8667C8.10421 28.9171 8.13734 28.9623 8.1784 28.9996C8.21946 29.037 8.26762 29.0656 8.32 29.084C8.37238 29.1023 8.42792 29.1099 8.48329 29.1063C8.53758 29.1045 8.591 29.0921 8.64049 29.0697C8.68998 29.0474 8.73457 29.0154 8.77172 28.9758C8.80887 28.9362 8.83785 28.8896 8.85699 28.8388C8.87613 28.788 8.88507 28.7339 8.88329 28.6796C8.88329 27.7729 8.73662 26.1063 8.73662 24.5729C8.73662 21.1196 9.54996 22.0929 10.7766 21.6129C11.5094 21.267 12.21 20.8565 12.87 20.3863C13.5417 19.9087 14.1509 19.3488 14.6833 18.7196C14.7205 18.6858 14.7502 18.6447 14.7706 18.5988C14.7909 18.5528 14.8014 18.5032 14.8014 18.4529C14.8014 18.4027 14.7909 18.353 14.7706 18.3071C14.7502 18.2612 14.7205 18.22 14.6833 18.1863C14.6473 18.1451 14.6027 18.1123 14.5526 18.0902C14.5025 18.0682 14.4482 18.0574 14.3935 18.0587C14.3388 18.06 14.2851 18.0732 14.2361 18.0976C14.1871 18.1219 14.144 18.1568 14.11 18.1996Z" fill="var(--fill-0, #322D53)"/>
<path id="Vector_3" fill-rule="evenodd" clip-rule="evenodd" d="M27.535 16.1064C26.9012 16.1732 26.2622 16.1732 25.6284 16.1064C23.735 15.8398 21.1617 14.1864 22.0684 11.4798C22.3741 10.6894 22.8637 9.98319 23.4967 9.41974C24.1297 8.85629 24.8879 8.4518 25.7084 8.23978C26.5747 7.9773 27.5029 8.00453 28.3523 8.31734C29.2017 8.63015 29.9259 9.21147 30.415 9.97311C30.658 10.3627 30.8211 10.7967 30.8949 11.2498C30.9688 11.703 30.9519 12.1663 30.8452 12.6128C30.7385 13.0594 30.5442 13.4803 30.2735 13.8512C30.0028 14.222 29.6612 14.5354 29.2684 14.7731C29.1775 14.8376 29.1155 14.9351 29.0956 15.0447C29.0756 15.1543 29.0994 15.2674 29.1617 15.3598C29.1911 15.4078 29.2303 15.449 29.2768 15.4808C29.3232 15.5126 29.3758 15.5342 29.4312 15.5443C29.4866 15.5544 29.5434 15.5526 29.5981 15.5392C29.6528 15.5258 29.704 15.501 29.7484 15.4664C30.2601 15.1797 30.7097 14.7941 31.0711 14.3321C31.4325 13.87 31.6984 13.3408 31.8535 12.7751C32.0086 12.2094 32.0497 11.6185 31.9744 11.0367C31.8991 10.455 31.709 9.89405 31.415 9.38644C30.8207 8.35772 29.9058 7.55186 28.8104 7.092C27.7149 6.63213 26.499 6.54355 25.3484 6.83978C24.3039 7.11268 23.3427 7.63862 22.5498 8.37113C21.7568 9.10364 21.1564 10.0202 20.8017 11.0398C20.579 11.7217 20.5393 12.4501 20.6867 13.1521C20.8342 13.8541 21.1635 14.5051 21.6417 15.0398C21.4216 14.9627 21.2077 14.8691 21.0017 14.7598C20.3053 14.2962 19.733 13.669 19.335 12.9331C19.0085 12.3454 18.5949 11.8105 18.1084 11.3464C17.7177 10.9542 17.2338 10.6676 16.7021 10.5137C16.1703 10.3598 15.6081 10.3435 15.0684 10.4664C14.6261 10.6534 14.2372 10.9475 13.937 11.3223C13.6367 11.6971 13.4344 12.1407 13.3484 12.6131C13.2693 12.9147 13.2693 13.2315 13.3484 13.5331C13.4891 13.9014 13.6493 14.2619 13.8284 14.6131C14.0076 14.9585 14.208 15.2924 14.4284 15.6131C14.9763 16.4542 15.6207 17.2283 16.3484 17.9198C17.0839 18.6134 17.909 19.2053 18.8017 19.6798C19.5162 19.9803 20.2461 20.2429 20.9884 20.4664C21.2101 20.5459 21.4207 20.6535 21.615 20.7864C21.7528 21.2788 21.8422 21.7834 21.8817 22.2931C21.9815 23.089 22.0216 23.8912 22.0017 24.6931C21.9719 25.9198 21.8739 27.1439 21.7084 28.3598C21.6925 28.4588 21.7165 28.5601 21.7753 28.6413C21.8341 28.7226 21.9227 28.7772 22.0217 28.7931C22.1207 28.809 22.222 28.785 22.3033 28.7262C22.3845 28.6674 22.4391 28.5788 22.455 28.4798C22.655 27.2531 22.855 25.9998 22.935 24.7464C22.995 23.8986 22.995 23.0476 22.935 22.1998C22.9194 21.6501 22.8659 21.1021 22.775 20.5598C22.7188 20.3232 22.5989 20.1065 22.4284 19.9331C22.1352 19.6828 21.8073 19.4763 21.455 19.3198C20.7884 19.0131 20.0017 18.8131 19.4284 18.4931C18.6536 18.0504 17.937 17.5129 17.295 16.8931C16.6542 16.2681 16.078 15.5802 15.575 14.8398C15.3884 14.5464 15.215 14.2531 15.055 13.9464C14.495 12.9331 14.6284 12.9864 14.7084 12.7064C14.7425 12.4952 14.8269 12.2953 14.9545 12.1236C15.0822 11.9518 15.2493 11.8133 15.4417 11.7198C15.895 11.5464 16.495 11.7198 17.3484 12.3198C18.2017 12.9198 18.815 14.7464 20.4817 15.6264C21.2691 16.0269 22.1457 16.2197 23.0284 16.1864C23.1571 16.2698 23.2907 16.3455 23.4284 16.4131C24.0847 16.7105 24.7894 16.8866 25.5084 16.9331C26.1987 16.9683 26.8907 16.937 27.575 16.8398C27.6237 16.8349 27.6709 16.8202 27.7137 16.7965C27.7565 16.7728 27.794 16.7406 27.8239 16.7019C27.8539 16.6633 27.8756 16.6189 27.8879 16.5715C27.9001 16.5241 27.9025 16.4748 27.895 16.4264C27.8882 16.3368 27.8469 16.2534 27.7797 16.1937C27.7125 16.134 27.6248 16.1027 27.535 16.1064Z" fill="var(--fill-0, #322D53)"/>
<path id="Vector_4" fill-rule="evenodd" clip-rule="evenodd" d="M28.7362 15.5594C28.7025 15.5169 28.6599 15.4822 28.6115 15.4578C28.563 15.4334 28.5098 15.4199 28.4556 15.4182C28.4013 15.4164 28.3474 15.4265 28.2975 15.4478C28.2475 15.469 28.2028 15.5009 28.1665 15.5412C28.1301 15.5815 28.103 15.6292 28.087 15.681C28.0709 15.7329 28.0664 15.7876 28.0737 15.8413C28.081 15.8951 28.0999 15.9466 28.1291 15.9924C28.1583 16.0381 28.1971 16.0769 28.2429 16.1061C29.3511 17.3603 30.049 18.9236 30.2429 20.5861C30.4166 21.5822 30.5235 22.5889 30.5629 23.5994C30.6124 25.1648 30.5723 26.7318 30.4429 28.2927C30.4354 28.3471 30.4388 28.4024 30.4529 28.4554C30.4671 28.5084 30.4916 28.5581 30.5251 28.6015C30.5586 28.6449 30.6004 28.6813 30.6481 28.7084C30.6958 28.7355 30.7484 28.7528 30.8029 28.7594C30.9122 28.7749 31.0233 28.7475 31.1128 28.6829C31.2023 28.6182 31.2633 28.5214 31.2829 28.4127C31.6249 26.8284 31.8345 25.2184 31.9095 23.5994C31.9535 22.4892 31.8549 21.3779 31.6162 20.2927C31.2182 18.435 30.2031 16.7667 28.7362 15.5594Z" fill="var(--fill-0, #322D53)"/>
<path id="Vector_5" fill-rule="evenodd" clip-rule="evenodd" d="M9.53533 4.80047C9.59997 5.02542 9.68476 5.24408 9.78867 5.4538C9.88206 5.6606 9.98896 5.86104 10.1087 6.0538C10.4155 6.52093 10.7541 6.96643 11.122 7.38714C11.1722 7.47118 11.2524 7.53305 11.3464 7.56027C11.4405 7.58749 11.5413 7.57803 11.6287 7.5338C11.7152 7.48599 11.7793 7.40579 11.8068 7.3108C11.8343 7.21581 11.823 7.11379 11.7753 7.02714C11.602 6.50714 11.5087 6.00047 11.3353 5.4938C11.2602 5.27931 11.1712 5.06997 11.0687 4.86714C10.9752 4.66466 10.8683 4.46867 10.7487 4.28047C10.4687 3.8138 10.162 3.3738 9.85534 2.94714C9.80571 2.84767 9.71923 2.77149 9.61429 2.73482C9.50936 2.69815 9.39425 2.70388 9.29348 2.7508C9.1927 2.79771 9.11421 2.8821 9.07472 2.986C9.03522 3.08991 9.03783 3.20513 9.082 3.30714C9.242 3.78714 9.34867 4.2938 9.53533 4.80047Z" fill="var(--fill-0, #322D53)"/>
<path id="Vector_6" fill-rule="evenodd" clip-rule="evenodd" d="M15.576 5.12021C15.5759 5.21696 15.6134 5.30995 15.6805 5.3796C15.7477 5.44924 15.8393 5.49009 15.936 5.49355C15.9854 5.49722 16.0351 5.49063 16.0819 5.4742C16.1287 5.45776 16.1716 5.43182 16.2079 5.39802C16.2442 5.36422 16.2732 5.32328 16.2929 5.27776C16.3126 5.23225 16.3228 5.18315 16.3226 5.13355C16.4426 4.57355 16.5893 4.05355 16.656 3.48022C16.6696 3.24486 16.6696 3.00891 16.656 2.77355C16.6689 2.53817 16.6689 2.30226 16.656 2.06688C16.656 1.52021 16.496 0.986882 16.416 0.426882C16.4162 0.318195 16.3749 0.213524 16.3006 0.134233C16.2262 0.0549417 16.1244 0.00700785 16.016 0.000215123C15.9606 -0.00157263 15.9054 0.00779721 15.8537 0.0277672C15.802 0.0477373 15.7548 0.0778996 15.715 0.116461C15.6752 0.155022 15.6436 0.201194 15.622 0.252231C15.6004 0.303268 15.5893 0.358128 15.5893 0.413549C15.496 0.973548 15.3893 1.50688 15.336 2.06688C15.3227 2.30225 15.3227 2.53818 15.336 2.77355C15.3229 3.00892 15.3229 3.24484 15.336 3.48022C15.3626 4.04022 15.496 4.56021 15.576 5.12021Z" fill="var(--fill-0, #322D53)"/>
<path id="Vector_7" fill-rule="evenodd" clip-rule="evenodd" d="M20.4285 6.95966C20.821 6.67767 21.191 6.36562 21.5352 6.02633C21.6699 5.87785 21.7904 5.71716 21.8952 5.54633C22.0019 5.38633 22.0952 5.21299 22.1885 5.03966C22.3885 4.61299 22.5485 4.19966 22.7352 3.78633C22.8043 3.69829 22.8372 3.58723 22.8273 3.47577C22.8174 3.3643 22.7654 3.2608 22.6819 3.18633C22.5895 3.12398 22.4764 3.10023 22.3668 3.12017C22.2572 3.1401 22.1597 3.20213 22.0952 3.29299C21.7485 3.62633 21.4285 3.93299 21.1085 4.29299C20.9885 4.43966 20.8685 4.58633 20.7619 4.74633C20.6322 4.90985 20.5163 5.08377 20.4152 5.26633C20.2152 5.67966 20.0819 6.09299 19.8685 6.49299C19.8343 6.52947 19.8078 6.57244 19.7906 6.61936C19.7733 6.66629 19.7656 6.7162 19.768 6.76614C19.7704 6.81608 19.7828 6.86503 19.8044 6.9101C19.8261 6.95516 19.8566 6.99541 19.8941 7.02846C19.9316 7.06151 19.9754 7.08669 20.0229 7.1025C20.0703 7.11831 20.1204 7.12443 20.1703 7.1205C20.2201 7.11657 20.2686 7.10267 20.313 7.07962C20.3574 7.05657 20.3967 7.02485 20.4285 6.98633V6.95966Z" fill="var(--fill-0, #322D53)"/>
</g>
</svg>
