<svg preserveAspectRatio="none" width="100%" height="100%" overflow="visible" style="display: block;" viewBox="0 0 31.9998 32" fill="none" xmlns="http://www.w3.org/2000/svg">
<g id="Group">
<path id="Vector" d="M25.0064 12.4052C24.7573 12.2745 24.4805 12.2015 24.1976 12.192C23.5258 12.192 22.4976 12.3785 22.1 12.4052C21.8627 12.3891 21.6245 12.3891 21.3871 12.4052C21.2015 12.4485 21.034 12.5462 20.9073 12.685C20.5783 13.0847 20.4412 13.6843 20.1533 14.124C20.1084 14.2001 20.0448 14.2642 19.9683 14.3107C19.8918 14.3572 19.8046 14.3846 19.7146 14.3905C19.3855 14.3905 19.1936 14.3905 19.0839 14.1906C18.6726 13.6576 18.563 12.8582 17.8501 12.5651C17.4624 12.4368 17.0519 12.3869 16.6436 12.4185C16.0404 12.4185 15.3412 12.5384 14.8066 12.5917C14.8738 12.427 14.9288 12.2578 14.9711 12.0854C15.1356 11.286 14.9711 10.4199 15.1493 9.60713L15.3961 9.68707C15.6575 9.74717 15.9298 9.74717 16.1912 9.68707C17.157 9.37816 17.9595 8.71311 18.4259 7.83503C18.6011 7.51509 18.6928 7.1582 18.6928 6.79575C18.6928 6.43331 18.6011 6.07642 18.4259 5.75648C18.3149 5.56808 18.1582 5.4089 17.9694 5.29279C17.7806 5.17668 17.5655 5.10716 17.3428 5.09027C16.9238 5.04383 16.5006 5.04383 16.0816 5.09027H15.7251C15.3537 4.50842 15.0893 3.8682 14.9437 3.19826C14.8287 2.79769 14.6278 2.42533 14.3542 2.10568C13.9963 1.8231 13.5775 1.62246 13.129 1.51866C12.6804 1.41486 12.2136 1.41057 11.7631 1.5061C11.6479 1.51625 11.5412 1.56884 11.4647 1.65309C11.3882 1.73733 11.3478 1.84683 11.3518 1.95912C11.3553 2.01515 11.3701 2.06995 11.3954 2.1204C11.4208 2.17084 11.4561 2.21592 11.4994 2.25306C11.5427 2.2902 11.5932 2.31866 11.6478 2.33681C11.7025 2.35496 11.7603 2.36245 11.8179 2.35884C12.8461 2.35884 13.3808 2.35884 13.6687 2.73191C13.8937 3.04533 14.0393 3.406 14.0937 3.78451C14.2553 4.51498 14.5627 5.20757 14.9985 5.82309C15.07 5.91488 15.1608 5.99085 15.2648 6.04598C15.3688 6.1011 15.4836 6.13413 15.6017 6.14287H16.8904C17.1098 6.14287 17.3428 6.14287 17.4388 6.28944C17.5422 6.50766 17.5765 6.75081 17.5374 6.98804C17.4984 7.22526 17.3877 7.44586 17.2194 7.62184C16.8797 8.07011 16.3981 8.39774 15.8485 8.55453C15.7388 8.55453 15.588 8.55453 15.4372 8.46126C15.1635 8.3983 14.8808 8.38028 14.6009 8.40796C14.4168 8.41923 14.2416 8.48937 14.1028 8.60746C13.9639 8.72554 13.8691 8.88495 13.8332 9.06084C13.6001 9.96688 13.7235 10.9529 13.5179 11.8722C13.4553 12.1171 13.3535 12.3509 13.2163 12.5651C12.8598 12.5651 12.284 12.3252 12.2155 12.3252C11.8188 12.2136 11.4083 12.1554 10.9953 12.152C10.7963 11.5265 10.5103 10.9303 10.1453 10.3799C9.92187 10.0903 9.63209 9.85529 9.29896 9.69341C8.96582 9.53152 8.59848 9.44724 8.22602 9.44724C7.89738 9.42787 7.56906 9.48982 7.27175 9.62731C6.97445 9.76479 6.71788 9.97331 6.52604 10.2334C6.09227 10.98 5.82158 11.8055 5.73089 12.6583L5.18251 12.7516H2.96157C2.4989 12.7503 2.03826 12.6921 1.59063 12.5784C1.24789 12.4984 1.17934 12.2053 1.17934 11.8855C1.26193 11.1081 1.47012 10.3482 1.79627 9.63378C2.43675 8.15086 3.41668 6.82938 4.66155 5.7698C5.90792 4.67621 7.38027 3.85398 8.98004 3.35814C9.0539 3.31534 9.11083 3.24968 9.14171 3.17168C9.17259 3.09369 9.17563 3.00787 9.15034 2.92799C9.12505 2.84812 9.0729 2.77881 9.00224 2.73117C8.93159 2.68354 8.84653 2.66034 8.76069 2.66529C7.03173 3.13809 5.42477 3.95985 4.04462 5.07695C2.63703 6.20375 1.51578 7.63088 0.768057 9.24738C0.252698 10.2383 -0.0105775 11.3349 0.000325341 12.4452C0.0400755 12.7786 0.18337 13.0923 0.411136 13.3446C0.638902 13.5969 0.940333 13.7758 1.27531 13.8575C1.80369 14.0001 2.3458 14.0894 2.89303 14.124H5.19622C5.5569 14.1455 5.91859 14.1455 6.27927 14.124C6.44256 14.1135 6.59891 14.0559 6.72835 13.9586C6.85778 13.8613 6.95441 13.7287 7.00587 13.5777C7.12121 12.8049 7.31877 12.0458 7.59538 11.3126C7.63864 11.1789 7.7242 11.0618 7.83989 10.9781C7.95558 10.8944 8.0955 10.8482 8.23973 10.8463C8.39413 10.8457 8.5465 10.8804 8.6846 10.9475C8.82269 11.0146 8.94267 11.1123 9.03488 11.2327C9.39526 11.839 9.68495 12.4826 9.89858 13.1513C9.95958 13.2775 10.0515 13.3871 10.1662 13.4708C10.2809 13.5544 10.415 13.6094 10.5566 13.631C11.1044 13.6677 11.654 13.6677 12.2018 13.631C12.3389 13.631 13.2437 13.7509 13.5727 13.7376C13.7054 13.7403 13.837 13.7142 13.958 13.6612C14.0789 13.6082 14.1862 13.5296 14.2719 13.4311V13.3512C14.8066 13.3512 15.7388 13.2579 16.5203 13.2712C16.7908 13.2599 17.0611 13.3007 17.3154 13.3912C17.6307 13.5377 17.6719 13.8708 17.7815 14.164C17.8872 14.525 18.0908 14.8517 18.371 15.11C18.7269 15.3864 19.1783 15.5199 19.6323 15.483C20.0433 15.4761 20.4378 15.3246 20.7428 15.0567C21.0839 14.6473 21.3738 14.2 21.6065 13.7243C22.1549 13.7243 23.9234 13.5511 23.9234 13.5511C23.9234 13.7776 23.6218 15.4164 23.471 16.0693C23.322 16.7263 23.139 17.3756 22.9226 18.0146L21.4557 22.2517C21.3544 22.6198 21.2261 22.9805 21.0718 23.3309C21.003 23.4878 20.8946 23.6253 20.7565 23.7306C20.315 23.9963 19.8189 24.1645 19.3033 24.2236C18.4324 24.3035 17.5557 24.3035 16.6848 24.2236H14.7929C14.5875 24.2373 14.3813 24.2373 14.1759 24.2236C14.3995 23.7237 14.5428 23.1935 14.6009 22.6514C14.7832 21.6644 14.7832 20.6538 14.6009 19.6668C14.5458 19.5317 14.4543 19.4135 14.3362 19.3245C14.218 19.2354 14.0775 19.1788 13.9292 19.1605L12.8872 19.0272C12.5074 18.9652 12.1519 18.804 11.859 18.5609C11.7387 18.4643 11.64 18.3446 11.5693 18.2094C11.4985 18.0742 11.4572 17.9262 11.4477 17.7748C11.4477 17.4017 11.4477 17.2018 11.6945 17.1619C12.1551 17.138 12.6167 17.1784 13.0655 17.2818C13.3673 17.353 13.6822 17.353 13.984 17.2818C14.1328 17.1908 14.2559 17.0652 14.3421 16.9163C14.4283 16.7674 14.4748 16.5999 14.4775 16.429C14.5275 15.697 14.5275 14.9626 14.4775 14.2306C14.4741 14.1745 14.4592 14.1197 14.4339 14.0693C14.4085 14.0189 14.3732 13.9738 14.3299 13.9366C14.2866 13.8995 14.2362 13.871 14.1815 13.8529C14.1269 13.8347 14.0691 13.8272 14.0114 13.8309C13.8975 13.8377 13.7908 13.8875 13.714 13.9696C13.6372 14.0517 13.5964 14.1597 13.6001 14.2705C13.6438 14.9865 13.6163 15.7049 13.5179 16.4157C13.1198 16.3676 12.7258 16.2919 12.3389 16.1892C11.8703 16.099 11.3841 16.1746 10.9679 16.4024C10.7484 16.5691 10.5765 16.7876 10.4685 17.0372C10.3605 17.2867 10.32 17.559 10.351 17.8281C10.353 18.3097 10.5166 18.7775 10.8171 19.1605C11.2591 19.6873 11.8575 20.0688 12.5308 20.2531L13.3534 20.3996C13.4137 20.9399 13.4137 21.4849 13.3534 22.0252C13.3138 22.6653 13.1163 23.2868 12.7776 23.8372C12.7776 23.9038 12.6405 23.9038 12.5582 23.9305C12.2721 24.0101 11.9779 24.0592 11.6808 24.0771H9.96712C9.29391 24.0941 8.62032 24.0629 7.95183 23.9838C7.57561 23.9502 7.20871 23.8509 6.86878 23.6907C6.6694 23.586 6.49983 23.4349 6.37524 23.251C6.07363 22.798 5.84057 22.2783 5.58009 21.9186C4.51143 20.5324 3.54916 19.0717 2.70109 17.5483C2.15556 16.5346 1.72352 15.467 1.4124 14.3638C1.4065 14.3111 1.38912 14.2602 1.3614 14.2146C1.33368 14.1689 1.29627 14.1295 1.25166 14.099C1.20705 14.0685 1.15627 14.0476 1.10269 14.0377C1.04911 14.0278 0.993972 14.0291 0.940944 14.0415C0.887915 14.0539 0.838216 14.0771 0.795158 14.1097C0.752099 14.1422 0.71667 14.1833 0.691231 14.2302C0.665792 14.2771 0.650927 14.3287 0.647627 14.3816C0.644326 14.4345 0.652666 14.4875 0.67209 14.537C0.926014 15.715 1.32174 16.8599 1.85111 17.948C2.65038 19.5636 3.56665 21.1219 4.593 22.6114C4.8809 23.0378 5.11396 23.6907 5.4567 24.197C5.65146 24.4952 5.91413 24.7459 6.22443 24.9298C6.69966 25.1732 7.21441 25.3355 7.74619 25.4095L8.39053 25.4894V26.4621C8.39848 26.7413 8.45888 27.0167 8.56876 27.2748C8.68665 27.5518 8.87542 27.7949 9.11714 27.981L9.36391 28.1143C9.35725 28.154 9.35725 28.1945 9.36391 28.2342C9.41482 29.0092 9.63942 29.7641 10.022 30.446C10.3322 30.9495 10.7841 31.3563 11.3244 31.6185C11.9781 31.8986 12.6897 32.0275 13.4033 31.9951C14.117 31.9627 14.8132 31.77 15.4372 31.4319C16.0949 31.1185 16.623 30.5966 16.9345 29.9523C17.246 29.3081 17.3223 28.5798 17.1509 27.8877C17.3665 27.7871 17.569 27.6618 17.7541 27.5147C18.0612 27.2322 18.3049 26.8911 18.4701 26.5128C18.6352 26.1345 18.7182 25.7271 18.7138 25.3162H19.4541C20.1434 25.2604 20.8122 25.0604 21.4145 24.7299C21.7449 24.5315 22.0147 24.2509 22.196 23.9172C22.3908 23.5282 22.5602 23.1277 22.7032 22.718C23.1008 21.7453 23.5532 20.786 23.9508 19.8134C24.129 19.3737 24.2935 18.9473 24.4443 18.481C24.6774 17.8014 24.8831 17.1485 25.0476 16.4024C25.2108 15.6916 25.3207 14.9702 25.3766 14.2439C25.4207 13.8231 25.4207 13.399 25.3766 12.9781C25.3576 12.8634 25.315 12.7535 25.2515 12.6551C25.1879 12.5566 25.1045 12.4717 25.0064 12.4052ZM15.3138 29.9663C14.8073 30.284 14.2283 30.4761 13.6276 30.5259C13.0332 30.6057 12.428 30.551 11.859 30.366C11.4147 30.2276 11.0324 29.9455 10.776 29.5666C10.5473 29.2153 10.3718 28.8339 10.255 28.434H10.3373C10.886 28.5192 11.4405 28.5638 11.9961 28.5673C12.805 28.5673 13.6138 28.474 14.3816 28.4207C15.0218 28.3702 15.6583 28.2812 16.2872 28.1542C16.3007 28.5124 16.218 28.8678 16.0474 29.1855C15.8767 29.5032 15.6239 29.7723 15.3138 29.9663ZM17.0275 26.6486C16.1703 27.0292 15.2188 27.1633 14.2856 27.035C13.4082 27.1016 12.4897 27.1682 11.5437 27.1816C11.1738 27.2015 10.8031 27.2015 10.4332 27.1816C10.2258 27.1714 10.0217 27.1263 9.83003 27.0483C9.66208 26.9999 9.51364 26.9021 9.40503 26.7685C9.30639 26.5825 9.25027 26.378 9.24052 26.1689C9.22729 25.9515 9.22729 25.7335 9.24052 25.5161H9.9397C10.8061 25.5361 11.6727 25.4871 12.5308 25.3695C12.9321 25.2963 13.3114 25.137 13.6413 24.9032C13.7018 24.9739 13.7831 25.025 13.8743 25.0497C14.164 25.102 14.4573 25.1332 14.7517 25.143H16.6162L17.7815 25.2496C17.7618 25.5207 17.6847 25.7849 17.5549 26.0257C17.4252 26.2664 17.2456 26.4785 17.0275 26.6486Z" fill="var(--fill-0, #322D53)"/>
<path id="Vector_2" d="M31.8459 5.73041C31.6187 5.13729 31.3532 4.55875 31.0507 3.99828C30.6457 3.0933 30.0321 2.29097 29.2571 1.6533C28.4821 1.01564 27.5666 0.559737 26.5814 0.32084C24.6765 -0.148272 22.6759 -0.102197 20.796 0.454081C20.7399 0.469389 20.6875 0.495402 20.6419 0.530602C20.5963 0.565802 20.5583 0.609483 20.5302 0.659097C20.5022 0.70871 20.4845 0.763262 20.4784 0.819568C20.4722 0.875874 20.4777 0.932807 20.4944 0.987043C20.5293 1.09229 20.6037 1.1809 20.7028 1.23523C20.8019 1.28955 20.9184 1.3056 21.0291 1.28017C22.7465 0.814072 24.5624 0.814072 26.2798 1.28017C27.0988 1.49825 27.8545 1.8982 28.4873 2.4485C29.1201 2.99879 29.6128 3.6844 29.9265 4.4513C30.0225 4.67781 30.2419 5.14415 30.4064 5.61049C30.5709 6.07684 30.6806 6.2234 30.6257 6.39661C30.5709 6.56983 30.4475 6.54318 30.3378 6.62312C30.0225 6.82298 29.6249 7.00952 29.3096 7.19606C29.1163 7.31381 28.9409 7.45733 28.7887 7.62243C28.7082 7.70872 28.6461 7.80969 28.6061 7.91948C28.5661 8.02927 28.5489 8.14569 28.5556 8.26198C28.5556 8.47517 28.6516 8.82159 28.6516 8.98148C28.6352 9.28172 28.5459 9.57393 28.3911 9.83422C28.352 9.92824 28.2886 10.0108 28.2069 10.0739C28.1252 10.1369 28.028 10.1783 27.925 10.194C27.6096 10.194 27.4725 10.0074 27.3355 9.80757C27.1373 9.48082 26.9077 9.173 26.65 8.88821C26.4069 8.63306 26.0924 8.45245 25.7451 8.36857C25.5247 8.31443 25.2938 8.31443 25.0734 8.36857C24.5764 8.55903 24.0952 8.7862 23.6339 9.0481C23.5185 9.11427 23.3938 9.16365 23.2637 9.19467C23.2637 9.19467 23.1952 9.19467 23.1678 9.19467C23.0625 9.05202 22.9707 8.9004 22.8936 8.74165C22.6605 8.24866 22.4823 7.6624 22.2629 7.23603L22.167 7.04949C22.8676 6.65157 23.471 6.1106 23.9355 5.46393C24.1681 5.11439 24.2564 4.69238 24.1827 4.28231C24.109 3.87224 23.8787 3.50432 23.5379 3.25213C23.3664 3.08775 23.1629 2.95829 22.9393 2.87134C22.7156 2.7844 22.4764 2.74173 22.2355 2.74582C21.5197 2.88097 20.821 3.09094 20.1517 3.37205L20.0831 3.14554L19.3154 1.08031C19.2809 0.9849 19.2087 0.906732 19.1149 0.863004C19.021 0.819276 18.9132 0.81357 18.815 0.847141C18.7168 0.880711 18.6364 0.950809 18.5914 1.04201C18.5464 1.13322 18.5405 1.23806 18.5751 1.33347L19.2469 3.42535C19.2469 3.42535 19.3702 3.85172 19.4388 3.99828C19.4751 4.08944 19.5392 4.16763 19.6225 4.2224C19.7058 4.27717 19.8043 4.3059 19.9049 4.30473C20.5767 4.30473 21.2759 3.85172 21.975 3.74512C22.127 3.70847 22.2864 3.71266 22.4361 3.75726C22.5858 3.80185 22.7203 3.88516 22.825 3.99828C22.9606 4.10769 23.0506 4.26126 23.0784 4.43039C23.1061 4.59952 23.0697 4.77268 22.9758 4.91764C22.4686 5.52602 21.8328 6.02132 21.1113 6.36996C20.9995 6.43169 20.9088 6.5239 20.8503 6.63519C20.7919 6.74648 20.7682 6.87199 20.7823 6.9962C20.85 7.29648 20.956 7.58741 21.0976 7.86226C21.2896 8.28863 21.4541 8.87489 21.6597 9.3812C21.7751 9.64589 21.9224 9.89636 22.0984 10.1273C22.2275 10.2946 22.3953 10.4301 22.5882 10.5226C22.7811 10.6152 22.9937 10.6624 23.2089 10.6603C23.7564 10.6013 24.2822 10.4188 24.7444 10.1273C25.0185 9.98078 25.471 9.80757 25.471 9.80757C25.6606 9.96451 25.8186 10.1543 25.9371 10.3672C26.1268 10.679 26.3572 10.9656 26.6226 11.2199C26.8164 11.3929 27.0472 11.5221 27.2984 11.5981C27.5497 11.6741 27.8152 11.6951 28.0758 11.6596C28.3475 11.6323 28.6102 11.5493 28.8465 11.416C29.0828 11.2828 29.2874 11.1025 29.4467 10.8868C29.8534 10.3532 30.0829 9.71179 30.1048 9.0481C30.1392 8.82729 30.1392 8.60271 30.1048 8.3819C30.4886 8.11542 31.0644 7.86226 31.4757 7.55581C31.6874 7.37355 31.8518 7.14529 31.9555 6.8896C32.0407 6.50133 32.0025 6.09708 31.8459 5.73041Z" fill="var(--fill-0, #322D53)"/>
</g>
</svg>
