<svg preserveAspectRatio="none" width="100%" height="100%" overflow="visible" style="display: block;" viewBox="0 0 26.7645 32.0374" fill="none" xmlns="http://www.w3.org/2000/svg">
<g id="Group">
<path id="Vector" fill-rule="evenodd" clip-rule="evenodd" d="M25.9688 5.63721C25.6554 5.32502 25.2757 5.08741 24.8579 4.94199C24.4402 4.79658 23.995 4.74709 23.5555 4.79721C22.8994 4.87759 22.3007 5.2112 21.8872 5.72685C21.4737 6.2425 21.2781 6.89934 21.3421 7.55721C21.3773 7.81834 21.4586 8.07114 21.5821 8.30387L19.2888 9.21054C19.0818 9.24243 18.877 9.28696 18.6755 9.34387C17.9155 8.23721 16.7155 6.17054 15.8355 4.93054C15.7288 4.79721 15.6355 4.69054 15.5555 4.57054C15.7194 4.45745 15.8713 4.32788 16.0088 4.18387C16.2984 3.97362 16.5245 3.68758 16.6621 3.35721C16.8222 2.92691 16.8453 2.45766 16.7284 2.0137C16.6114 1.56975 16.3601 1.1728 16.0088 0.877207C15.7052 0.569446 15.3376 0.332265 14.932 0.182488C14.5265 0.0327109 14.0929 -0.025993 13.6621 0.0105403C13.0012 0.0844933 12.3959 0.415363 11.9768 0.931734C11.5578 1.4481 11.3585 2.10856 11.4222 2.77054C11.4757 3.16811 11.6369 3.54347 11.8883 3.85603C12.1398 4.16859 12.4719 4.40645 12.8488 4.54387C11.7155 5.87721 9.82215 8.54387 9.15548 9.45054L8.50215 9.34387C7.63019 8.99776 6.73998 8.69954 5.83548 8.45054C5.98483 8.02967 6.00496 7.57376 5.8933 7.14136C5.78164 6.70896 5.54327 6.31981 5.20882 6.02387C4.8954 5.71169 4.51572 5.47408 4.09794 5.32866C3.68016 5.18325 3.235 5.13376 2.79548 5.18387C2.12805 5.26724 1.52069 5.61127 1.10602 6.14086C0.691336 6.67045 0.503011 7.34259 0.582151 8.01054C0.627055 8.31269 0.732569 8.60264 0.892354 8.86299C1.05214 9.12333 1.2629 9.3487 1.51197 9.52554C1.76104 9.70238 2.04329 9.82705 2.34176 9.89207C2.64023 9.95708 2.94876 9.9611 3.24882 9.90387V10.8239L3.48882 12.1572L4.06215 14.1572L4.59548 15.9572C4.76882 16.5305 5.42215 16.3439 5.36882 15.7039L4.90215 13.9439L4.42215 11.9439L4.35548 10.6772C4.35548 10.5439 4.27548 10.1039 4.26215 9.79721C4.49332 9.70498 4.71633 9.59347 4.92882 9.46387C5.175 9.47932 5.41995 9.5105 5.66215 9.55721C6.51017 9.84166 7.34245 10.171 8.15548 10.5439C8.59077 10.6709 9.03727 10.7557 9.48882 10.7972C9.60763 10.8051 9.72648 10.7823 9.83391 10.7309C9.94133 10.6795 10.0337 10.6013 10.1022 10.5039C10.3022 10.2105 13.0088 6.50387 14.2355 5.17054C15.2221 6.33054 17.0088 9.35721 17.8488 10.5039C17.9244 10.6036 18.0239 10.6827 18.138 10.734C18.2522 10.7852 18.3774 10.807 18.5021 10.7972C18.8975 10.7312 19.2858 10.6285 19.6621 10.4905C19.9955 10.3705 20.3288 10.2505 20.6488 10.1039C20.9688 9.95721 21.5955 9.67721 22.0622 9.46387C22.1555 9.46387 22.4888 9.38387 22.5821 9.26387C22.7255 9.43232 22.8098 9.64304 22.8221 9.86387C22.8844 10.3061 22.8844 10.7549 22.8221 11.1972C22.6518 12.3411 22.3887 13.4693 22.0355 14.5705C21.7955 15.3705 21.4355 16.0505 21.1288 16.8239C20.8221 17.5972 21.4355 18.1572 21.7021 17.5705C22.0888 16.7172 22.6488 15.7572 22.9555 14.9039C23.3609 13.7611 23.6774 12.5887 23.9021 11.3972C24.0111 10.7663 24.0111 10.1214 23.9021 9.49054C24.5688 9.49054 24.4221 9.69054 24.7688 9.57054C25.2026 9.44691 25.6096 9.24343 25.9688 8.97054C26.2548 8.7565 26.48 8.47157 26.6221 8.14387C26.7843 7.70959 26.8086 7.23586 26.6917 6.78728C26.5748 6.33869 26.3223 5.93708 25.9688 5.63721ZM4.82215 8.14387C4.71548 8.57054 1.86215 9.99721 1.78215 7.83721C1.80581 7.5 1.95667 7.18438 2.2042 6.95417C2.45173 6.72397 2.77745 6.59638 3.11548 6.59721C3.3545 6.56187 3.59839 6.58066 3.82917 6.6522C4.05995 6.72374 4.27171 6.8462 4.44882 7.01054C4.61551 7.14187 4.73982 7.31941 4.80621 7.52097C4.87261 7.72253 4.87815 7.93918 4.82215 8.14387ZM12.6221 2.67721C12.649 2.34239 12.8013 2.03005 13.0485 1.80263C13.2957 1.57521 13.6196 1.44946 13.9555 1.45054C14.1809 1.42281 14.4096 1.4442 14.626 1.51325C14.8423 1.5823 15.0412 1.69736 15.2088 1.85054C15.3982 1.96579 15.5481 2.13591 15.6386 2.33832C15.7291 2.54073 15.7559 2.76587 15.7155 2.98387C15.6504 3.20374 15.5144 3.39593 15.3288 3.53054C15.3288 3.53054 12.6755 4.34387 12.6221 2.67721ZM25.5688 7.74387C25.4987 7.96126 25.3638 8.15201 25.1821 8.29054C24.967 8.46725 24.7109 8.58722 24.4374 8.63951C24.1639 8.6918 23.8817 8.67473 23.6165 8.58987C23.3513 8.505 23.1116 8.35505 22.9193 8.1537C22.7269 7.95234 22.5881 7.70602 22.5155 7.43721C22.5424 7.10239 22.6946 6.79005 22.9418 6.56263C23.189 6.3352 23.5129 6.20946 23.8488 6.21054C24.0742 6.18281 24.3029 6.2042 24.5193 6.27325C24.7356 6.3423 24.9345 6.45736 25.1021 6.61054C25.284 6.73463 25.4253 6.90959 25.5083 7.11354C25.5913 7.31748 25.6124 7.54137 25.5688 7.75721V7.74387Z" fill="var(--fill-0, #322D53)"/>
<path id="Vector_2" fill-rule="evenodd" clip-rule="evenodd" d="M20.7294 18.0105C20.2199 17.6013 19.6421 17.2854 19.0227 17.0772C17.0553 16.4767 15.0128 16.1579 12.956 16.1305C10.5964 15.9859 8.23006 16.2659 5.96937 16.9572L5.80937 17.0372C5.59405 17.1216 5.38842 17.2289 5.19604 17.3572C4.79031 17.5816 4.46421 17.9263 4.2627 18.3439C4.0011 18.9786 3.77847 19.6287 3.59604 20.2905C3.3427 21.2372 3.1827 22.0639 3.0627 22.5839C3.01698 22.6655 2.97688 22.7501 2.9427 22.8372L2.67604 22.9439C2.08553 23.0774 1.5025 23.2421 0.929369 23.4372C0.382703 23.6505 0.102702 23.9839 0.0627024 24.2505C-0.297298 26.1305 0.902703 28.2505 3.40937 29.8505C6.1987 31.4427 9.38946 32.1929 12.596 32.0105C12.6846 31.9939 12.7646 31.9468 12.8222 31.8774C12.8797 31.808 12.9112 31.7207 12.9112 31.6305C12.9112 31.5404 12.8797 31.4531 12.8222 31.3837C12.7646 31.3143 12.6846 31.2672 12.596 31.2505C9.54062 31.3623 6.51911 30.5791 3.9027 28.9972C1.99604 27.7305 0.929369 26.1172 1.16937 24.6505C0.956036 24.2905 2.28937 24.3172 2.88937 24.1839C3.26706 24.119 3.62633 23.9735 3.9427 23.7572C4.13472 23.5497 4.27217 23.2977 4.3427 23.0239C4.67475 21.608 5.12064 20.2213 5.67604 18.8772C5.83604 18.4639 6.48937 18.2505 7.32937 18.0372C9.19702 17.622 11.1115 17.4561 13.0227 17.5439C13.716 17.5439 14.356 17.6105 15.0494 17.6772C14.5598 18.4948 13.9169 19.2101 13.156 19.7839C12.792 20.0517 12.4087 20.2923 12.0094 20.5039C11.6037 20.7088 11.185 20.887 10.756 21.0372C9.96517 21.3277 9.1317 21.4854 8.28937 21.5039C8.33786 21.0236 8.41804 20.547 8.52937 20.0772C8.55018 19.9784 8.53289 19.8755 8.48096 19.7889C8.42904 19.7024 8.34631 19.6387 8.24937 19.6105C8.1557 19.5857 8.05604 19.5982 7.97144 19.6455C7.88684 19.6927 7.82394 19.7711 7.79604 19.8639C7.33509 21.1956 7.13148 22.6028 7.19604 24.0105C7.26758 25.0034 7.57868 25.9642 8.1027 26.8105C8.71119 27.6705 9.58096 28.3111 10.5827 28.6372C11.9819 29.1011 13.469 29.238 14.9294 29.0372C15.4463 28.9825 15.9533 28.8568 16.436 28.6639C16.8113 28.5245 17.1523 28.3062 17.436 28.0239C18.1379 27.2261 18.6001 26.2462 18.7694 25.1972C19.035 23.7482 19.0033 22.2603 18.676 20.8239C18.6476 20.7136 18.5775 20.6187 18.4806 20.559C18.3836 20.4993 18.2673 20.4796 18.156 20.5039C18.0468 20.5293 17.952 20.5968 17.8921 20.6916C17.8322 20.7864 17.8121 20.901 17.836 21.0105C18.0362 22.1171 18.0362 23.2506 17.836 24.3572C17.7108 25.4076 17.2421 26.3873 16.5027 27.1439C16.3358 27.289 16.1405 27.398 15.9294 27.4639C15.5386 27.5818 15.1363 27.6578 14.7294 27.6905C13.6869 27.8026 12.6331 27.744 11.6094 27.5172C10.6516 27.367 9.77276 26.8971 9.11604 26.1839C8.53349 25.3522 8.20044 24.3716 8.15604 23.3572V22.4905C9.11077 22.6841 10.0946 22.6841 11.0494 22.4905C11.5858 22.3689 12.1021 22.1713 12.5827 21.9039C13.0684 21.6509 13.5171 21.3324 13.916 20.9572C14.8073 20.1161 15.484 19.0737 15.8894 17.9172C16.7944 18.0305 17.687 18.2269 18.556 18.5039C19.3827 18.7839 20.0094 19.0639 20.196 19.5172C20.8494 21.0905 21.196 22.5439 21.436 23.2372C21.4992 23.4847 21.6282 23.7105 21.8094 23.8905C22.0155 24.0304 22.2462 24.1299 22.4894 24.1839C22.916 24.3172 23.7027 24.8239 24.0494 24.7839C23.9867 25.7173 23.71 26.6238 23.2406 27.4331C22.7713 28.2423 22.1218 28.9327 21.3427 29.4505C19.497 30.5566 17.3878 31.1461 15.236 31.1572C15.1794 31.1571 15.1234 31.1686 15.0714 31.191C15.0195 31.2134 14.9727 31.2463 14.9339 31.2875C14.8952 31.3288 14.8653 31.3776 14.8462 31.4308C14.827 31.4841 14.8191 31.5407 14.8227 31.5972C14.8296 31.7116 14.8808 31.8187 14.9655 31.8959C15.0501 31.9731 15.1615 32.0142 15.276 32.0105C17.6133 32.0541 19.9182 31.4595 21.9427 30.2905C22.9614 29.6475 23.8043 28.7613 24.3955 27.7116C24.9866 26.6619 25.3076 25.4817 25.3294 24.2772C25.3314 24.1245 25.2881 23.9747 25.205 23.8466C25.122 23.7184 25.0029 23.6177 24.8627 23.5572C24.3071 23.3131 23.7317 23.1168 23.1427 22.9705C22.9827 22.9705 22.8227 22.8239 22.7294 22.7972L22.676 22.6772C22.5294 22.2239 22.356 21.5039 22.1027 20.6505C21.9294 20.1172 21.756 19.5305 21.516 18.9305C21.2749 18.6065 21.0121 18.2991 20.7294 18.0105Z" fill="var(--fill-0, #322D53)"/>
</g>
</svg>
