<svg preserveAspectRatio="none" width="100%" height="100%" overflow="visible" style="display: block;" viewBox="0 0 12.375 15.75" fill="none" xmlns="http://www.w3.org/2000/svg">
<path id="Vector" d="M6.18751 0C7.82853 0 9.40213 0.652121 10.5625 1.8125C11.7229 2.97288 12.375 4.54647 12.375 6.1875C12.377 7.5275 11.9391 8.83111 11.1289 9.89844L11.1279 9.89941C11.1279 9.89941 10.9602 10.1209 10.9346 10.1514L6.18751 15.75L1.44239 10.1543C1.41545 10.1222 1.24708 9.89941 1.24708 9.89941C0.436512 8.83174 -0.00189368 7.528 6.14875e-06 6.1875C6.14875e-06 4.54647 0.652127 2.97288 1.81251 1.8125C2.97289 0.65212 4.54648 1.559e-06 6.18751 0ZM6.18751 1.125C4.84485 1.125 3.55683 1.65802 2.60743 2.60742C1.65803 3.55682 1.12501 4.84484 1.12501 6.1875C1.12376 7.28335 1.4819 8.34984 2.14454 9.22266C2.15066 9.23043 2.2762 9.39592 2.30567 9.43262L6.18751 14.0107L10.0742 9.42676C10.0989 9.39571 10.2312 9.22115 10.2315 9.2207C10.8936 8.34832 11.2513 7.28273 11.25 6.1875C11.25 4.84484 10.717 3.55682 9.76758 2.60742C8.81818 1.65802 7.53016 1.125 6.18751 1.125ZM5.63868 3.42871C6.18418 3.3202 6.74981 3.37606 7.26368 3.58887C7.7776 3.80174 8.21733 4.16249 8.52637 4.625C8.83533 5.08747 9.00001 5.63132 9.00001 6.1875C8.99916 6.93316 8.70305 7.64852 8.17579 8.17578C7.64853 8.70304 6.93317 8.99915 6.18751 9C5.63132 9 5.08748 8.83533 4.62501 8.52637C4.16249 8.21733 3.80174 7.77759 3.58887 7.26367C3.37607 6.7498 3.32021 6.18418 3.42872 5.63867C3.53725 5.09313 3.80591 4.59254 4.19922 4.19922C4.59254 3.8059 5.09313 3.53724 5.63868 3.42871ZM6.18751 4.5C5.8538 4.5 5.52749 4.59881 5.25001 4.78418C4.9725 4.9696 4.75664 5.23364 4.62891 5.54199C4.50123 5.85028 4.46716 6.18933 4.53223 6.5166C4.59735 6.84394 4.75815 7.14486 4.99415 7.38086C5.23015 7.61686 5.53106 7.77766 5.8584 7.84277C6.18568 7.90784 6.52473 7.87377 6.83301 7.74609C7.14136 7.61837 7.4054 7.40251 7.59083 7.125C7.7762 6.84752 7.87501 6.52121 7.87501 6.1875C7.87451 5.7401 7.69625 5.31148 7.37989 4.99512C7.06353 4.67876 6.63491 4.50049 6.18751 4.5Z" fill="var(--fill-0, black)"/>
</svg>
