<svg preserveAspectRatio="none" width="100%" height="100%" overflow="visible" style="display: block;" viewBox="0 0 32 58" fill="none" xmlns="http://www.w3.org/2000/svg">
<g id="Frame 2147237409">
<rect x="0.5" y="0.5" width="31" height="57" rx="15.5" stroke="var(--stroke-0, #032126)" stroke-opacity="0.7"/>
<path id="Arrow 1" d="M15.4697 42.5303C15.7626 42.8232 16.2374 42.8232 16.5303 42.5303L21.3033 37.7574C21.5962 37.4645 21.5962 36.9896 21.3033 36.6967C21.0104 36.4038 20.5355 36.4038 20.2426 36.6967L16 40.9393L11.7574 36.6967C11.4645 36.4038 10.9896 36.4038 10.6967 36.6967C10.4038 36.9896 10.4038 37.4645 10.6967 37.7574L15.4697 42.5303ZM16 16L15.25 16L15.25 42L16 42L16.75 42L16.75 16L16 16Z" fill="var(--stroke-0, #032126)" fill-opacity="0.7"/>
</g>
</svg>
